0
SECTION
2
HEADER
9
$INSUNITS
70
4
9
$ACADVER
1
AC1014
9
$HANDSEED
5
FFFF
0
ENDSEC
0
SECTION
2
TABLES
0
TABLE
2
VPORT
5
8
100
AcDbSymbolTable
0
ENDTAB
0
TABLE
2
LTYPE
5
5
100
AcDbSymbolTable
0
LTYPE
5
14
100
AcDbSymbolTableRecord
100
AcDbLinetypeTableRecord
2
BYBLOCK
70
0
0
LTYPE
5
15
100
AcDbSymbolTableRecord
100
AcDbLinetypeTableRecord
2
BYLAYER
70
0
0
ENDTAB
0
TABLE
2
LAYER
5
2
100
AcDbSymbolTable
70
2
0
LAYER
5
50
100
AcDbSymbolTableRecord
100
AcDbLayerTableRecord
2
0
70
0
6
CONTINUOUS
0
ENDTAB
0
TABLE
2
STYLE
5
3
100
AcDbSymbolTable
70
1
0
STYLE
5
11
100
AcDbSymbolTableRecord
100
AcDbTextStyleTableRecord
2
STANDARD
70
0
0
ENDTAB
0
TABLE
2
VIEW
5
6
100
AcDbSymbolTable
70
0
0
ENDTAB
0
TABLE
2
UCS
5
7
100
AcDbSymbolTable
70
0
0
ENDTAB
0
TABLE
2
APPID
5
9
100
AcDbSymbolTable
70
2
0
APPID
5
12
100
AcDbSymbolTableRecord
100
AcDbRegAppTableRecord
2
ACAD
70
0
0
ENDTAB
0
TABLE
2
DIMSTYLE
5
A
100
AcDbSymbolTable
70
1
0
ENDTAB
0
TABLE
2
BLOCK_RECORD
5
1
100
AcDbSymbolTable
70
1
0
BLOCK_RECORD
5
1F
100
AcDbSymbolTableRecord
100
AcDbBlockTableRecord
2
*MODEL_SPACE
0
BLOCK_RECORD
5
1B
100
AcDbSymbolTableRecord
100
AcDbBlockTableRecord
2
*PAPER_SPACE
0
ENDTAB
0
ENDSEC
0
SECTION
2
BLOCKS
0
BLOCK
5
20
100
AcDbEntity
100
AcDbBlockBegin
2
*MODEL_SPACE
0
ENDBLK
5
21
100
AcDbEntity
100
AcDbBlockEnd
0
BLOCK
5
1C
100
AcDbEntity
100
AcDbBlockBegin
2
*PAPER_SPACE
0
ENDBLK
5
1D
100
AcDbEntity
100
AcDbBlockEnd
0
ENDSEC
0
SECTION
2
ENTITIES
0
LWPOLYLINE
5
100
100
AcDbEntity
8
0
100
AcDbPolyline
90
36
70
1
43
0.0
10
-345.99999999998914
20
-498.66888225382928
10
-349.99999999998914
20
-498.66888225382922
10
-349.99999999998863
20
-473.66888225382922
10
-345.99999999998863
20
-473.66888225382928
10
-345.99999999998818
20
-448.66888225382928
10
-349.99999999998812
20
-448.66888225382922
10
-349.99999999998761
20
-423.66888225382922
10
-345.99999999998766
20
-423.66888225382934
10
-345.99999999998715
20
-398.66888225382928
10
-237.33333333332038
20
-398.66888225383144
10
-237.33333333332087
20
-423.6688822538315
10
-233.33333333332092
20
-423.66888225383161
10
-233.33333333332041
20
-398.6688822538315
10
-120.66666666665381
20
-398.66888225383377
10
-120.66666666665429
20
-423.66888225383377
10
-116.66666666665428
20
-423.66888225383389
10
-116.66666666665378
20
-398.66888225383383
10
-3.9999999999871432
20
-398.66888225383605
10
-3.9999999999876441
20
-423.66888225383616
10
1.2357092475208833e-11
20
-423.66888225383627
10
1.1857737014508984e-11
20
-448.66888225383616
10
-3.9999999999881437
20
-448.6688822538361
10
-3.9999999999886433
20
-473.6688822538361
10
1.1358187891178536e-11
20
-473.66888225383616
10
1.0859091403858656e-11
20
-498.66888225383616
10
-3.999999999989142
20
-498.66888225383616
10
-3.9999999999896296
20
-523.66888225383616
10
-116.66666666665628
20
-523.66888225383377
10
-116.66666666665579
20
-498.66888225383383
10
-120.6666666666558
20
-498.66888225383383
10
-120.66666666665625
20
-523.66888225383377
10
-233.33333333332291
20
-523.6688822538315
10
-233.3333333333224
20
-498.66888225383155
10
-237.3333333333224
20
-498.6688822538315
10
-237.33333333332291
20
-523.66888225383138
10
-345.99999999998965
20
-523.66888225382922
0
LWPOLYLINE
5
101
100
AcDbEntity
8
0
100
AcDbPolyline
90
4
70
1
43
0.0
10
-120.66666666665529
20
-473.66888225383377
10
-116.66666666665529
20
-473.66888225383383
10
-116.66666666665479
20
-448.66888225383389
10
-120.66666666665481
20
-448.66888225383377
0
LWPOLYLINE
5
102
100
AcDbEntity
8
0
100
AcDbPolyline
90
4
70
1
43
0.0
10
-233.33333333332192
20
-473.66888225383155
10
-233.33333333332143
20
-448.66888225383155
10
-237.33333333332141
20
-448.6688822538315
10
-237.33333333332189
20
-473.6688822538315
0
LWPOLYLINE
5
103
100
AcDbEntity
8
0
100
AcDbPolyline
90
28
70
1
43
0.0
10
-345.99999999999994
20
-563.17434532031871
10
-349.99999999999994
20
-563.17434532031871
10
-349.99999999999994
20
-544.84101198698545
10
-345.99999999999994
20
-544.84101198698545
10
-345.99999999999994
20
-526.12670065446753
10
-237.3333333333332
20
-526.12670065446753
10
-237.3333333333332
20
-544.84101198698545
10
-233.3333333333332
20
-544.84101198698545
10
-233.3333333333332
20
-526.12670065446753
10
-120.6666666666666
20
-526.12670065446753
10
-120.6666666666666
20
-544.84101198698545
10
-116.66666666666659
20
-544.84101198698545
10
-116.66666666666659
20
-526.12670065446753
10
-3.999999999999944
20
-526.12670065446753
10
-3.999999999999944
20
-544.84101198698545
10
5.5955548892105685e-14
20
-544.84101198698545
10
5.6066262743570405e-14
20
-563.17434532031871
10
-3.999999999999944
20
-563.17434532031871
10
-3.9999999999999325
20
-581.12670065446753
10
-116.66666666666659
20
-581.12670065446753
10
-116.66666666666659
20
-563.17434532031871
10
-120.6666666666666
20
-563.17434532031871
10
-120.66666666666656
20
-581.12670065446753
10
-233.3333333333332
20
-581.12670065446753
10
-233.3333333333332
20
-563.17434532031871
10
-237.3333333333332
20
-563.17434532031871
10
-237.3333333333332
20
-581.12670065446753
10
-345.99999999999994
20
-581.12670065446753
0
LWPOLYLINE
5
104
100
AcDbEntity
8
0
100
AcDbPolyline
90
4
70
1
43
0.0
10
-120.6666666666666
20
-715.42437945607571
10
-116.6666666666666
20
-715.42437945607571
10
-116.6666666666666
20
-683.99580802750438
10
-120.6666666666666
20
-683.99580802750438
0
LWPOLYLINE
5
105
100
AcDbEntity
8
0
100
AcDbPolyline
90
4
70
1
43
0.0
10
-120.6666666666666
20
-652.56723659893294
10
-116.6666666666666
20
-652.56723659893294
10
-116.6666666666666
20
-621.13866517036161
10
-120.6666666666666
20
-621.13866517036161
0
LWPOLYLINE
5
106
100
AcDbEntity
8
0
100
AcDbPolyline
90
4
70
1
43
0.0
10
-120.6666666666666
20
-778.28152231321849
10
-116.6666666666666
20
-778.28152231321849
10
-116.6666666666666
20
-746.85295088464716
10
-120.6666666666666
20
-746.85295088464716
0
LWPOLYLINE
5
107
100
AcDbEntity
8
0
100
AcDbPolyline
90
4
70
1
43
0.0
10
-237.3333333333332
20
-715.42437945607571
10
-233.3333333333332
20
-715.42437945607571
10
-233.3333333333332
20
-683.99580802750438
10
-237.3333333333332
20
-683.99580802750438
0
LWPOLYLINE
5
108
100
AcDbEntity
8
0
100
AcDbPolyline
90
4
70
1
43
0.0
10
-237.3333333333332
20
-778.28152231321849
10
-233.3333333333332
20
-778.28152231321849
10
-233.3333333333332
20
-746.85295088464716
10
-237.3333333333332
20
-746.85295088464716
0
LWPOLYLINE
5
109
100
AcDbEntity
8
0
100
AcDbPolyline
90
4
70
1
43
0.0
10
-237.3333333333332
20
-652.56723659893294
10
-233.3333333333332
20
-652.56723659893294
10
-233.3333333333332
20
-621.13866517036161
10
-237.3333333333332
20
-621.13866517036161
0
LWPOLYLINE
5
110
100
AcDbEntity
8
0
100
AcDbPolyline
90
40
70
1
43
0.0
10
-349.99999999999994
20
-589.71009374179062
10
-344.99999999999994
20
-589.71009374179027
10
-344.99999999999994
20
-584.71009374179062
10
-237.3333333333332
20
-584.71009374179062
10
-237.3333333333332
20
-589.71009374179027
10
-233.3333333333332
20
-589.71009374179027
10
-233.3333333333332
20
-584.71009374179062
10
-120.6666666666666
20
-584.71009374179062
10
-120.66666666666657
20
-589.71009374179027
10
-116.66666666666659
20
-589.71009374179027
10
-116.66666666666659
20
-584.71009374179062
10
-3.9999999999999352
20
-584.71009374179062
10
-3.999999999999921
20
-589.71009374179027
10
6.4837314920726082e-14
20
-589.71009374179027
10
6.4948046940571658e-14
20
-621.13866517036195
10
-3.9999999999999352
20
-621.13866517036183
10
-3.9999999999999352
20
-652.56723659893328
10
6.4837289468615961e-14
20
-652.56723659893328
10
6.4948046940571658e-14
20
-683.99580802750461
10
-3.9999999999999352
20
-683.99580802750484
10
-3.9999999999999352
20
-715.42437945607617
10
6.4837264016506257e-14
20
-715.42437945607617
10
6.4948046940571658e-14
20
-746.8529508846475
10
-3.9999999999999352
20
-746.8529508846475
10
-3.9999999999999352
20
-778.28152231321894
10
6.4837238564396552e-14
20
-778.28152231321883
10
7.1054273576010019e-14
20
-809.71009374179016
10
-349.99999999999994
20
-809.71009374179039
10
-349.99999999999994
20
-778.28152231321894
10
-345.99999999999994
20
-778.28152231321894
10
-345.99999999999994
20
-746.8529508846475
10
-349.99999999999994
20
-746.85295088464738
10
-349.99999999999994
20
-715.42437945607605
10
-345.99999999999994
20
-715.42437945607605
10
-345.99999999999994
20
-683.99580802750461
10
-349.99999999999994
20
-683.99580802750461
10
-349.99999999999994
20
-652.56723659893328
10
-345.99999999999994
20
-652.56723659893339
10
-345.99999999999994
20
-621.13866517036195
10
-349.99999999999994
20
-621.13866517036195
0
LWPOLYLINE
5
111
100
AcDbEntity
8
0
100
AcDbPolyline
90
41
70
1
43
0.0
10
70.138414854402399
20
-693.22918699682998
10
74.480578424870458
20
-694.80960528879314
42
-0.83909963117729536
10
72.770477708247455
20
-704.50806839272332
10
54.056166375729561
20
-704.50806839273343
10
54.056166375727386
20
-700.50806839273332
10
35.722833042394065
20
-700.50806839274333
10
35.722833042396232
20
-704.50806839274321
10
17.389499709062907
20
-704.5080683927531
42
-0.41421356237308582
10
12.389499709060201
20
-699.50806839275606
10
12.389499708902306
20
-407.98570887514387
42
-0.52056705055175212
10
19.09960042552812
20
-403.28724577121068
10
34.253818079340064
20
-408.8029299207804
10
31.403650218297088
20
-416.63370176066445
10
27.644879735152713
20
-415.26562118736376
10
24.794711874109723
20
-423.09639302724798
10
28.553482357254097
20
-424.46447360054862
10
25.703314496211039
20
-432.29524544043278
10
49.19563001586333
20
-440.84574902356195
10
47.827549442562685
20
-444.60451950670625
10
71.319864962215021
20
-453.15502308983525
10
72.687945535515652
20
-449.39625260669084
10
96.180261055167961
20
-457.94675618981984
10
94.812180481867344
20
-461.7055266729642
10
118.30449600151967
20
-470.2560302560932
10
119.6725765748203
20
-466.49725977294884
10
147.86335519840316
20
-476.75786407270368
42
-0.41421356237309509
10
150.8517175857078
20
-483.16642789325988
10
149.14161686908338
20
-487.86489099719131
10
145.38284638593919
20
-486.49681042389011
10
134.63364188143393
20
-516.03000707716728
10
138.39241236457812
20
-517.39808765046848
10
127.64320786007289
20
-546.93128430374566
10
123.88443737692867
20
-545.56320373044423
10
113.13523287242342
20
-575.09640038372152
10
116.89400335556762
20
-576.46448095702272
10
106.14479885106236
20
-605.99767761029977
10
102.38602836791816
20
-604.62959703699858
10
91.636823863412914
20
-634.16279369027575
10
95.395594346557075
20
-635.53087426357683
10
84.646389842051832
20
-665.06407091685389
10
80.887619358907656
20
-663.69599034355269
0
LWPOLYLINE
5
112
100
AcDbEntity
8
0
100
AcDbPolyline
90
28
70
1
43
0.0
10
-346.00000000000057
20
-828.19521876712668
10
-350.00000000000057
20
-828.19521876712668
10
-350.00000000000057
20
-819.86188543379342
10
-346.00000000000057
20
-819.8618854337933
10
-346.00000000000057
20
-811.52855210046005
10
-237.33333333333383
20
-811.52855210045982
10
-237.33333333333383
20
-819.8618854337933
10
-233.33333333333385
20
-819.8618854337933
10
-233.33333333333385
20
-811.52855210045971
10
-120.66666666666721
20
-811.52855210045959
10
-120.6666666666672
20
-819.86188543379296
10
-116.6666666666672
20
-819.86188543379296
10
-116.66666666666721
20
-811.52855210045971
10
-4.0000000000005693
20
-811.52855210045959
10
-4.0000000000005596
20
-819.86188543379296
10
-5.5893009338349525e-13
20
-819.86188543379296
10
-5.4845017416482733e-13
20
-828.19521876712633
10
-4.0000000000005489
20
-828.19521876712633
10
-4.0000000000005365
20
-836.52855210045959
10
-116.66666666666717
20
-836.52855210045971
10
-116.6666666666672
20
-828.19521876712645
10
-120.6666666666672
20
-828.19521876712645
10
-120.66666666666718
20
-836.52855210045971
10
-233.33333333333383
20
-836.52855210045982
10
-233.33333333333383
20
-828.19521876712656
10
-237.3333333333338
20
-828.19521876712656
10
-237.33333333333377
20
-836.52855210045982
10
-346.00000000000057
20
-836.52855210046005
0
LWPOLYLINE
5
113
100
AcDbEntity
8
0
100
AcDbPolyline
90
41
70
1
43
0.0
10
-298.98196402448673
20
-905.48845248911857
10
-300.56238231645222
20
-909.83061605958585
42
-0.83909963117726682
10
-310.2608454203816
20
-908.12051534295711
10
-310.26084542038069
20
-889.40620401043918
10
-306.26084542038075
20
-889.40620401043918
10
-306.26084542037984
20
-871.07287067710581
10
-310.26084542037984
20
-871.0728706771057
10
-310.26084542037881
20
-852.73953734377233
42
-0.41421356237307005
10
-305.26084542037881
20
-847.73953734377278
10
-13.738485902766062
20
-847.73953734378676
42
-0.52056705055174179
10
-9.0400227988368975
20
-854.44963806041517
10
-14.555706948415605
20
-869.60385571422398
10
-22.38647878829806
20
-866.75368785317619
10
-21.018398214995159
20
-862.99491737003268
10
-28.849170054877536
20
-860.14474950898511
10
-30.217250628180409
20
-863.90351999212851
10
-38.048022468062975
20
-861.05335213108106
10
-46.598526051205759
20
-884.54566765072832
10
-50.357296534349345
20
-883.17758707742541
10
-58.907800117492293
20
-906.66990259707279
10
-55.149029634348707
20
-908.03798317037547
10
-63.69953321749157
20
-931.53029869002285
10
-67.458303700635156
20
-930.16221811671994
10
-76.008807283777969
20
-953.65453363636732
10
-72.250036800634362
20
-955.02261420967011
10
-82.510641100405863
20
-983.2133928332471
42
-0.41421356237307339
10
-88.919204920963821
20
-986.20175522054797
10
-93.6176680248943
20
-984.4916545039207
10
-92.249587451590926
20
-980.73288402077742
10
-121.78278410486175
20
-969.98367951625471
10
-123.15086467816521
20
-973.74244999939822
10
-152.68406133143597
20
-962.99324549487551
10
-151.31598075813264
20
-959.234475011732
10
-180.84917741140347
20
-948.48527050720929
10
-182.21725798470686
20
-952.24404099035269
10
-211.7504546379777
20
-941.49483648582998
10
-210.38237406467425
20
-937.73606600268658
10
-239.91557071794506
20
-926.98686149816399
10
-241.28365129124853
20
-930.74563198130727
10
-270.81684794451934
20
-919.99642747678467
10
-269.44876737121598
20
-916.23765699364128
0
LWPOLYLINE
5
114
100
AcDbEntity
8
0
100
AcDbPolyline
90
41
70
1
43
0.0
10
-421.24122951685638
20
-721.36807360997398
10
-425.58339308732366
20
-719.78765531800877
42
-0.83909963117729125
10
-423.87329237069531
20
-710.08919221407928
10
-405.15898103817739
20
-710.08919221407939
10
-405.15898103817739
20
-714.08919221407928
10
-386.82564770484407
20
-714.08919221407916
10
-386.82564770484407
20
-710.08919221407928
10
-368.4923143715107
20
-710.08919221407928
42
-0.41421356237310752
10
-363.4923143715107
20
-715.08919221407928
10
-363.4923143715107
20
-1006.6115517316915
42
-0.52056705055173047
10
-370.20241508813905
20
-1011.310014835621
10
-385.35663274194798
20
-1005.7943306860431
10
-382.50646488090075
20
-997.96355884616048
10
-378.74769439775719
20
-999.33163941946316
10
-375.8975265367099
20
-991.5008675795807
10
-379.65629701985347
20
-990.13278700627791
10
-376.80612915880613
20
-982.30201516639522
10
-400.29844467845396
20
-973.75151158325355
10
-398.93036410515123
20
-969.99274110011004
10
-422.422679624799
20
-961.44223751696825
10
-423.79076019810157
20
-965.20100800011176
10
-447.28307571774934
20
-956.65050441697008
10
-445.91499514444661
20
-952.89173393382634
10
-469.40731066409444
20
-944.34123035068467
10
-470.77539123739706
20
-948.10000083382829
10
-498.96616986097428
20
-937.8393965340581
42
-0.41421356237310181
10
-501.95453224827543
20
-931.43083271350042
10
-500.2444315316485
20
-926.73236960956979
10
-496.48566104850511
20
-928.10045018287292
10
-485.73645654398382
20
-898.56725352960189
10
-489.49522702712733
20
-897.19917295629841
10
-478.74602252260604
20
-867.66597630302726
10
-474.98725203946259
20
-869.0340568763304
10
-464.23804753494142
20
-839.50086022305914
10
-467.99681801808481
20
-838.13277964975578
10
-457.24761351356346
20
-808.59958299648451
10
-453.48884303042007
20
-809.96766356978799
10
-442.73963852589884
20
-780.4344669165165
10
-446.49840900904229
20
-779.06638634321337
10
-435.749204504521
20
-749.53318968994211
10
-431.99043402137755
20
-750.90127026324524
0
LWPOLYLINE
5
115
100
AcDbEntity
8
0
100
AcDbPolyline
90
41
70
1
43
0.0
10
-421.24122951685638
20
-411.36807360997409
10
-425.58339308732366
20
-409.78765531800894
42
-0.83909963117729125
10
-423.87329237069531
20
-400.08919221407939
10
-405.15898103817739
20
-400.08919221407939
10
-405.15898103817739
20
-404.08919221407933
10
-386.82564770484407
20
-404.08919221407933
10
-386.82564770484407
20
-400.08919221407939
10
-368.4923143715107
20
-400.08919221407939
42
-0.41421356237310336
10
-363.4923143715107
20
-405.08919221407939
10
-363.49231437151082
20
-696.61155173169163
42
-0.52056705055174257
10
-370.20241508813905
20
-701.31001483562113
10
-385.35663274194798
20
-695.79433068604317
10
-382.50646488090075
20
-687.96355884616059
10
-378.74769439775719
20
-689.33163941946327
10
-375.8975265367099
20
-681.50086757958081
10
-379.65629701985347
20
-680.13278700627802
10
-376.80612915880613
20
-672.30201516639545
10
-400.29844467845396
20
-663.75151158325366
10
-398.93036410515123
20
-659.99274110011004
10
-422.422679624799
20
-651.44223751696825
10
-423.79076019810157
20
-655.20100800011187
10
-447.28307571774934
20
-646.65050441697019
10
-445.91499514444661
20
-642.89173393382657
10
-469.40731066409444
20
-634.3412303506849
10
-470.77539123739706
20
-638.10000083382852
10
-498.96616986097433
20
-627.83939653405832
42
-0.41421356237309648
10
-501.95453224827543
20
-621.43083271350054
10
-500.2444315316485
20
-616.73236960957001
10
-496.48566104850511
20
-618.10045018287337
10
-485.73645654398382
20
-588.567253529602
10
-489.49522702712733
20
-587.19917295629875
10
-478.74602252260604
20
-557.66597630302749
10
-474.98725203946259
20
-559.03405687633062
10
-464.23804753494142
20
-529.50086022305936
10
-467.99681801808481
20
-528.13277964975612
10
-457.24761351356346
20
-498.59958299648486
10
-453.48884303042007
20
-499.9676635697881
10
-442.73963852589884
20
-470.43446691651673
10
-446.49840900904229
20
-469.06638634321354
10
-435.749204504521
20
-439.53318968994216
10
-431.99043402137755
20
-440.90127026324535
0
ENDSEC
0
SECTION
2
OBJECTS
0
DICTIONARY
5
C
100
AcDbDictionary
3
ACAD_GROUP
350
D
3
ACAD_MLINESTYLE
350
17
0
DICTIONARY
5
D
100
AcDbDictionary
0
DICTIONARY
5
1A
330
C
100
AcDbDictionary
0
DICTIONARY
5
17
100
AcDbDictionary
0
ENDSEC
0
EOF
